<svg xmlns="http://www.w3.org/2000/svg" width="128" height="256"><path fill="#f4bc3d" d="M128 0H0v256h128z"/><path fill="#cb8c00" d="M128 224H0v32h128zm0-64H0v32h128zm0-64H0v32h128zm0-64H0v32h128z"/><path fill="#b99632" d="M128 192v32H48l32-32z"/><path fill="#8a6100" d="M128 224v32H80l-32-32z"/><path fill="#b99632" d="M128 128v32H48l32-32z"/><path fill="#8a6100" d="M128 160v32H80l-32-32z"/><path fill="#b99632" d="M128 64v32H48l32-32z"/><path fill="#8a6100" d="M128 96v32H80L48 96z"/><path fill="#b99632" d="M128 0v32H48L80 0z"/><path fill="#8a6100" d="M128 32v32H80L48 32z"/></svg>