<svg xmlns="http://www.w3.org/2000/svg" width="128" height="256"><path fill="#f4bc3d" d="M0 0h128v256H0z"/><path fill="#cb8c00" d="M0 224h128v32H0zm0-64h128v32H0zm0-64h128v32H0zm0-64h128v32H0z"/><path fill="#b99632" d="M0 0v32h80L48 0z"/><path fill="#8a6100" d="M0 32v32h48l32-32z"/><path fill="#b99632" d="M0 64v32h80L48 64z"/><path fill="#8a6100" d="M0 96v32h48l32-32z"/><path fill="#b99632" d="M0 128v32h80l-32-32z"/><path fill="#8a6100" d="M0 160v32h48l32-32z"/><path fill="#b99632" d="M0 192v32h80l-32-32z"/><path fill="#8a6100" d="M0 224v32h48l32-32z"/></svg>