<svg viewBox="0 0 192 256" xmlns="http://www.w3.org/2000/svg"><g transform="translate(-750.74 -2921.02) scale(3.6075)"><path d="M234.72 816.36a19.151 14.865 0 0 0-19.152 14.865 19.151 14.865 0 0 0 5.521 10.436 24.277 17.734 0 0 0-10.646 14.654 24.277 17.734 0 0 0 24.277 17.732 24.277 17.734 0 0 0 24.277-17.732 24.277 17.734 0 0 0-10.643-14.67 19.151 14.865 0 0 0 5.516-10.42 19.151 14.865 0 0 0-19.15-14.865z" fill="#47aaee"/><circle cx="229.33" cy="834.53" r="2.676" fill="#f7f7ed"/><circle cx="240.11" cy="834.53" r="2.676" fill="#f7f7ed"/></g></svg>